/* XPM */
static char *cur_c[]={
"64 64 3 1",
"  c None",
"a c  #C0C0C0",
". c  #C0C0C0",
"                                                                ",
"                                                                ",
"                                                                ",
"                                                                ",
"                                                                ",
"                                                                ",
"                                                                ",
"                                                                ",
"                                                                ",
"                                                                ",
"                                                                ",
"                                                                ",
"                                                                ",
"                                                                ",
"                                                                ",
"                                                                ",
"                                                                ",
"                                                                ",
"                                                                ",
"                                                                ",
"                                                                ",
"                                                                ",
"                                                                ",
"                                                                ",
"                                                                ",
"                                                                ",
"                                                                ",
"                                                                ",
"                                                                ",
"                                                                ",
"                                                                ",
"                                                                ",
"                                ..                              ",
"                                .a.                             ",
"                                .aa.                            ",
"                                .aaa.                           ",
"                                .aaaa.                          ",
"                                .aaaaa.                         ",
"                                .aaaaaa.                        ",
"                                .aaaaaaa.                       ",
"                                .aaaaaaaa.                      ",
"                                .aaaaa....                      ",
"                                .aa.aa.                         ",
"                                .a. .aa.                        ",
"                                ..  .aa.                        ",
"                                     .aa.                       ",
"                                     .aa.       ......          ",
"                                      .aa.     .aaaaaa.         ",
"                                      .aa.    .aaaaaaaa.        ",
"                                       ..    .aaaa...aaa.       ",
"                                             .aaa.   .aa.       ",
"                                             .aa.    .aa.       ",
"                                             .aa.     ..        ",
"                                             .aa.               ",
"                                             .aa.               ",
"                                             .aa.               ",
"                                             .aa.               ",
"                                             .aa.     ..        ",
"                                             .aa.    .aa.       ",
"                                             .aaa.   .aa.       ",
"                                             .aaaa...aaa.       ",
"                                              .aaaaaaaa.        ",
"                                               .aaaaaa.         ",
"                                                ......          "};
