/* XPM */
static char *cur_c[]={
"64 64 3 1",
"  c None",
"a c  #C0C0C0",
". c  #C0C0C0",
"                                                                ",
"                                                                ",
"                                                                ",
"                                                                ",
"                                                                ",
"                                                                ",
"                                                                ",
"                                                                ",
"                                                                ",
"                                                                ",
"                                                                ",
"                                                                ",
"                                                                ",
"                                                                ",
"                                                                ",
"                                                                ",
"                                                                ",
"                                                                ",
"                                                                ",
"                                                                ",
"                                                                ",
"                                                                ",
"                                                                ",
"                                                                ",
"                                                                ",
"                                                                ",
"                                                                ",
"                                                                ",
"                                                                ",
"                                                                ",
"                                                                ",
"                                                                ",
"                                ..                              ",
"                                .a.                             ",
"                                .aa.                            ",
"                                .aaa.                           ",
"                                .aaaa.                          ",
"                                .aaaaa.                         ",
"                                .aaaaaa.                        ",
"                                .aaaaaaa.                       ",
"                                .aaaaaaaa.                      ",
"                                .aaaaa....                      ",
"                                .aa.aa.                         ",
"                                .a. .aa.                        ",
"                                ..  .aa.                        ",
"                                     .aa.                       ",
"                                     .aa.                       ",
"                                      .aa.   ....    ....       ",
"                                      .aa.   .aa.    .aa.       ",
"                                       ..    .aa.    .aa.       ",
"                                             .aa.    .aa.       ",
"                                             .aa.   .aaa.       ",
"                                             .aa.  .aaaa.       ",
"                                             .aa. .aaaaa.       ",
"                                             .aa..aaa.aa.       ",
"                                             .aa.aaa..aa.       ",
"                                             .aaaaa. .aa.       ",
"                                             .aaaa.  .aa.       ",
"                                             .aaa.   .aa.       ",
"                                             .aa.    .aa.       ",
"                                             .aa.    .aa.       ",
"                                             ....    ....       ",
"                                                                ",
"                                                                "};
