/* XPM */
static char *cur_k[]={
"32 32 3 1",
"# c None",
"a c #303030",
". c #ff0000",
"..##############################",
".a.#############################",
".aa.############################",
".aaa.###########################",
".aaaa.##########################",
".aaaaa.#########################",
".aaaaaa.########################",
".aaaaaaa.#######################",
".aaaaaaaa.######################",
".aaaaa....######################",
".aa.aa.#########################",
".a.#.aa.########################",
"..##.aa.########################",
"#####.aa.#######################",
"#####.aa.#######################",
"######.aa.#..######..#..........",
"######.aa.#..#####...#..........",
"#######..##..####...######..####",
"###########..###...#######..####",
"###########..##...########..####",
"###########..#...#########..####",
"###########.....##########..####",
"###########....###########..####",
"###########....###########..####",
"###########.....##########..####",
"###########..#...#########..####",
"###########..##...########..####",
"###########..###...#######..####",
"###########..####...######..####",
"###########..#####...#####..####",
"###########..######..#####..####",
"################################"};
