/* XPM */
static char *cur_km[]={
"32 32 3 1",
"  c None",
"a c #303030",
". c #ffffff",
"aaa                             ",
"aaaaa                           ",
"aaa..aa                         ",
" a.....aa                       ",
" a.......aa                     ",
"  a.....a..a                    ",
"  a....aa...a                   ",
"   a..a..a...a                  ",
"   a.aa...a...a                 ",
"    a..a...a...a                ",
"    a...a...a...a               ",
"     a...a...a...a              ",
"      a...a...a...a             ",
"       a...a...a...a            ",
"        a...a...a...a           ",
"         a...a...a...a          ",
"          a...a...a..a          ",
"           a...a...a.a          ",
"            a...a...a           ",
"             a...a.a            ",
"              a...a             ",
"               aaa              ",
"                                ",
"                                ",
"                                ",
"                                ",
"                                ",
"                                ",
"                                ",
"                                ",
"                                ",
"                                "};
