/* XPM */
static char * pa_xpm[] = {
"64 64 4 1",
" 	c None",
".	c #C0C0C0",
"+	c #B2B2B2",
"@	c #B1B1B1",
"                                                                ",
"                                                                ",
"                                                                ",
"                                                                ",
"                                                                ",
"                                                                ",
"                                                                ",
"                                                                ",
"                                                                ",
"                                                                ",
"                                                                ",
"                                                                ",
"                                                                ",
"                                                                ",
"                                                                ",
"                                                                ",
"                                                                ",
"                                                                ",
"                                                                ",
"                                                                ",
"                                                                ",
"                                                                ",
"                                                                ",
"                                                                ",
"                                                                ",
"                                                                ",
"                                                                ",
"                                                                ",
"                                                                ",
"                                                                ",
"                                                                ",
"                                                                ",
"                                ..                              ",
"                                ...                             ",
"                                ....                            ",
"                                .....                           ",
"                                ......                          ",
"                                .......                         ",
"                                ........                        ",
"                                .........                       ",
"                                ..........                      ",
"                                ..........                      ",
"                                .......                         ",
"                                ... ....                        ",
"                                ..  ....                        ",
"                                     ....                       ",
"                                     ....                       ",
"                                      ....                      ",
"                                      ....                      ",
"                                       ..   ++++++++    +++     ",
"                                            ++    ++    +++     ",
"                                            ++    ++   @+++@    ",
"                                            ++    ++   ++ ++    ",
"                                            ++    ++   +@ ++    ",
"                                            ++    ++  @+   +@   ",
"                                            ++    ++  @+++++@   ",
"                                            ++    ++  ++   ++   ",
"                                            ++    ++ @+     ++  ",
"                                                                ",
"                                                                ",
"                                                                ",
"                                                                ",
"                                                                ",
"                                                                "};
