/* XPM */
static char *cur_s[]={
"32 32 3 1",
". c None",
"a c #000040",
"# c #ff0000",
"................................",
"............#...................",
"...........#a#..................",
"...........#a#..................",
"..........#aaa#.................",
"..........#aaa#.................",
".........#aaaaa#................",
"..........#aaa#.................",
"...........#a#..................",
"...........#a#..................",
".....#.....#a#.....#............",
"...##a#....#a#....#a##..........",
".##aaaa####...####aaaa##........",
"#aaaaaaaaaa...aaaaaaaaaa#.......",
".##aaaa####...####aaaa##........",
"...##a#....#a#....#a##..........",
".....#.....#a#.....#............",
"...........#a#..................",
"...........#a#..................",
"..........#aaa#.................",
".........#aaaaa#................",
"..........#aaa#.................",
"..........#aaa#.................",
"...........#a#..................",
"...........#a#..................",
"............#...................",
"................................",
"................................",
"................................",
"................................",
"................................",
"................................"};
