/* XPM */
static char *cur_setmash[]={
"32 32 3 1",
". c None",
"a c None",
"# c #ff0000",
"...#.#..........................",
"...#.#..........................",
"...#.#..........................",
"####.####.......................",
"....a...........................",
"####.####.......................",
"...#.#..........................",
"...#.#.#.#.#.#.#.#.#.#.#.#.#.#..",
"...#.#..........................",
".......#.....................#..",
"................................",
".......#.....................#..",
"................................",
".......#.....................#..",
"................................",
".......#.....................#..",
"................................",
".......#.....................#..",
"................................",
".......#.....................#..",
"................................",
".......#.....................#..",
"................................",
".......#.....................#..",
"................................",
".......#.....................#..",
"................................",
".......#.....................#..",
"................................",
".......#.#.#.#.#.#.#.#.#.#.#.#..",
"................................",
"................................"};
